<svg xmlns="http://www.w3.org/2000/svg" xmlns:xlink="http://www.w3.org/1999/xlink" width="500" zoomAndPan="magnify" viewBox="0 0 375 374.999991" height="500" preserveAspectRatio="xMidYMid meet" version="1.0"><defs><clipPath id="5bdbad8ffc"><path d="M 51 63.132812 L 325 63.132812 L 325 312 L 51 312 Z M 51 63.132812 " clip-rule="nonzero"/></clipPath><clipPath id="1baf13aa0b"><path d="M 29.585938 229 L 46 229 L 46 283 L 29.585938 283 Z M 29.585938 229 " clip-rule="nonzero"/></clipPath><clipPath id="23f41747e6"><path d="M 329 229 L 345.335938 229 L 345.335938 283 L 329 283 Z M 329 229 " clip-rule="nonzero"/></clipPath></defs><g clip-path="url(#5bdbad8ffc)"><path fill="#00bf63" d="M 323.605469 222.078125 C 324.523438 209.066406 326.953125 143.546875 287.167969 100.457031 C 263.6875 75.023438 230.304688 62.527344 187.929688 63.359375 C 145.574219 62.558594 112.171875 75.027344 88.691406 100.457031 C 49.914062 142.453125 51.238281 205.757812 52.179688 220.992188 C 51.621094 223.097656 51.320312 225.3125 51.320312 227.597656 L 51.320312 286.023438 C 51.320312 300.191406 62.796875 311.671875 76.96875 311.671875 L 94.777344 311.671875 C 108.945312 311.671875 120.429688 300.191406 120.429688 286.023438 L 120.429688 227.597656 C 120.429688 213.429688 108.945312 201.945312 94.777344 201.945312 L 76.96875 201.945312 C 75.035156 201.945312 73.152344 202.167969 71.339844 202.574219 C 72.308594 179.277344 77.964844 140.375 102.894531 113.4375 C 122.515625 92.230469 151.113281 81.828125 187.738281 82.597656 L 187.929688 82.601562 L 188.125 82.597656 C 224.765625 81.867188 253.347656 92.230469 272.96875 113.4375 C 297.921875 140.402344 303.5625 179.363281 304.523438 202.652344 C 302.609375 202.195312 300.613281 201.945312 298.558594 201.945312 L 280.746094 201.945312 C 266.578125 201.945312 255.097656 213.429688 255.097656 227.597656 L 255.097656 286.023438 C 255.097656 300.191406 266.578125 311.671875 280.746094 311.671875 L 298.558594 311.671875 C 312.722656 311.671875 324.210938 300.191406 324.210938 286.023438 L 324.210938 227.597656 C 324.207031 225.699219 323.996094 223.855469 323.605469 222.078125 Z M 323.605469 222.078125 " fill-opacity="1" fill-rule="nonzero"/></g><g clip-path="url(#1baf13aa0b)"><path fill="#00bf63" d="M 45.082031 229.023438 L 29.585938 238.105469 L 29.585938 272.84375 L 45.082031 282.996094 " fill-opacity="1" fill-rule="nonzero"/></g><g clip-path="url(#23f41747e6)"><path fill="#00bf63" d="M 329.910156 229.023438 L 345.40625 238.105469 L 345.40625 272.84375 L 329.910156 282.996094 " fill-opacity="1" fill-rule="nonzero"/></g></svg>